<svg width="36" height="36" viewBox="0 0 36 36" fill="none" xmlns="http://www.w3.org/2000/svg">
<path d="M32 0H4C1.79086 0 0 1.79086 0 4V32C0 34.2091 1.79086 36 4 36H32C34.2091 36 36 34.2091 36 32V4C36 1.79086 34.2091 0 32 0Z" fill="#DEDEDE"/>
<g clip-path="url(#clip0)">
<path d="M17.2624 15.5192C17.2624 16.3158 16.7439 16.9615 16.1044 16.9615C15.4649 16.9615 14.9464 16.3158 14.9464 15.5192C14.9464 14.7227 15.4649 14.0769 16.1044 14.0769C16.7439 14.0769 17.2624 14.7227 17.2624 15.5192Z" fill="#333333"/>
<path d="M20.7363 16.9615C21.3758 16.9615 21.8942 16.3158 21.8942 15.5192C21.8942 14.7227 21.3758 14.0769 20.7363 14.0769C20.0967 14.0769 19.5783 14.7227 19.5783 15.5192C19.5783 16.3158 20.0967 16.9615 20.7363 16.9615Z" fill="#333333"/>
<path fill-rule="evenodd" clip-rule="evenodd" d="M27.6841 15.2308C27.6841 19.129 25.259 22.4628 21.8302 23.8161C26.5612 25.2666 30 29.6562 30 34.8462V36H6.84064V34.8462C6.84064 31.6105 8.17723 28.6859 10.3303 26.5907L5.40089 22.3465C4.91699 21.9299 4.86367 21.2013 5.2818 20.7191C5.69993 20.2369 6.43117 20.1838 6.91508 20.6004L12.1742 25.1285C13.0466 24.5706 13.999 24.1262 15.0104 23.8161C11.5816 22.4628 9.15658 19.129 9.15658 15.2308C9.15658 10.1328 13.3041 6 18.4203 6C23.5365 6 27.6841 10.1328 27.6841 15.2308ZM13.7885 11.7692C12.5094 11.7692 11.4725 12.8024 11.4725 14.0769V16.3846C11.4725 17.6591 12.5094 18.6923 13.7885 18.6923H23.0522C24.3313 18.6923 25.3681 17.6591 25.3681 16.3846V14.0769C25.3681 12.8024 24.3313 11.7692 23.0522 11.7692H13.7885Z" fill="#333333"/>
</g>
<defs>
<clipPath id="clip0">
<rect width="25" height="30" fill="white" transform="translate(5 6)"/>
</clipPath>
</defs>
</svg>
