<svg width="27" height="12" viewBox="0 0 27 12" fill="none" xmlns="http://www.w3.org/2000/svg">
<path d="M26.415 6.34289C26.1164 5.65952 25.5288 5.27932 24.6498 4.95689C23.9659 4.70423 23.5902 4.50692 23.1302 3.93423C21.4277 1.82394 20.8618 0 18.3284 0L12.3706 0.0457195C11.3447 0.0457195 10.4272 0.964908 9.61327 1.60497L6.30446 4.68017C6.10699 4.86304 5.86377 4.98817 5.59887 5.04351L1.93606 5.79427C1.59892 5.8833 1.32681 6.13355 1.20881 6.46802L0.105868 9.50471C-0.108457 10.2314 0.00954753 10.5587 0.397261 11.1217C0.784974 11.6872 1.11007 11.9976 1.11007 11.9976L3.86741 12C3.865 11.9447 3.86019 11.6679 3.86019 11.6126C3.86019 9.90174 5.21839 8.51574 6.89446 8.51574C8.57054 8.51574 9.92873 9.90174 9.92873 11.6126C9.92873 11.6679 9.92392 11.9471 9.92152 12H16.9894C16.987 11.9447 16.9822 11.6679 16.9822 11.6126C16.9822 9.90174 18.3404 8.51574 20.0165 8.51574C21.6926 8.51574 23.0508 9.90174 23.0508 11.6126C23.0508 11.6679 23.046 11.9471 23.0436 12H25.2302C26.586 12 27.0363 10.8618 26.9977 9.49028C26.952 8.1139 26.7401 7.08161 26.415 6.34289ZM14.9425 5.59214C14.9425 5.82795 14.7619 6.02045 14.5404 6.02045H7.80474C7.56151 6.02045 7.44834 5.70042 7.63136 5.52958C7.63136 5.52958 10.8703 2.38941 11.299 2.06938C11.7276 1.74935 12.137 1.4991 12.6789 1.4991L14.5379 1.5015C14.7595 1.5015 14.9401 1.694 14.9401 1.92982V5.59214H14.9425ZM21.8732 6.02045H16.2116C15.9901 6.02045 15.8095 5.82795 15.8095 5.59214V1.93222C15.8095 1.69641 15.9877 1.50391 16.2092 1.50391L18.6029 1.49188C19.5565 1.48707 19.9298 2.06457 20.3681 2.68057C20.8907 3.41688 21.9792 5.10848 22.1574 5.42851C22.3332 5.74614 22.0996 6.02045 21.8732 6.02045Z" fill="#16162D"/>
</svg>
