<svg width="24" height="24" viewBox="0 0 24 24" fill="none" xmlns="http://www.w3.org/2000/svg">
<path d="M12.5063 0.666504C12.493 0.666504 12.4797 0.666504 12.4664 0.666504C6.19501 1.12466 1.1221 6.19756 0.667267 12.4656C0.657307 12.6117 0.7071 12.7512 0.806699 12.8574C0.909618 12.967 1.04906 13.03 1.19846 13.03H6.35436C6.49048 13.03 6.60336 12.9238 6.61996 12.7877C6.96191 9.647 9.61788 6.99767 12.8017 6.62584C12.9345 6.60924 13.0341 6.49636 13.0341 6.36356V1.20102C13.0341 1.05162 12.9744 0.912189 12.8615 0.80927C12.7619 0.716311 12.6391 0.666504 12.5063 0.666504Z" fill="#16162D"/>
<path d="M13.9478 3.81055V6.52296C13.9478 7.04087 13.5626 7.47578 13.0481 7.53554C10.2526 7.86422 7.83238 10.2745 7.53027 13.0268C7.47383 13.5513 7.03559 13.9464 6.51436 13.9464H3.80859C4.00779 19.1654 8.30051 23.3352 13.566 23.3352C18.9609 23.3352 23.3333 18.9629 23.3333 13.5679C23.3399 8.30246 19.1667 4.00974 13.9478 3.81055ZM13.5693 17.0937C11.6238 17.0937 10.0468 15.5167 10.0468 13.5712C10.0468 11.6257 11.6238 10.0488 13.5693 10.0488C15.5148 10.0488 17.0918 11.6257 17.0918 13.5712C17.0951 15.5167 15.5181 17.0937 13.5693 17.0937Z" fill="#16162D"/>
</svg>
