<svg width="24" height="19" viewBox="0 0 24 19" fill="none" xmlns="http://www.w3.org/2000/svg">
<path d="M23.3735 5.3404H21.7652C21.441 5.3404 21.1761 5.60534 21.1761 5.92949V6.87391H18.293L17.4047 5.44638C17.1179 4.95703 16.5943 4.65781 16.0301 4.65781H13.6831V2.71911H16.853C17.2177 2.71911 17.5138 2.423 17.5138 2.05832V1.15443C17.5138 0.789755 17.2177 0.493652 16.853 0.493652H8.27533C7.91065 0.493652 7.61455 0.789755 7.61455 1.15443V2.05832C7.61455 2.423 7.91065 2.71911 8.27533 2.71911H11.1148V4.65781H9.25091C8.79273 4.65781 8.35637 4.85417 8.05403 5.19703L6.50182 6.87079H5.17714C4.75013 6.87079 4.40727 7.21677 4.40727 7.64066V10.2931H2.30026V6.67131C2.30026 6.30664 2.00415 6.01053 1.63948 6.01053H0.660778C0.296102 6.01053 0 6.30664 0 6.67131V16.2588C0 16.6235 0.296102 16.9196 0.660778 16.9196H1.63948C2.00415 16.9196 2.30026 16.6235 2.30026 16.2588V12.8646H4.40727V15.5763C4.40727 16.0033 4.75325 16.3461 5.17714 16.3461H7.61455L9.38805 18.2911C9.69039 18.6214 10.1174 18.8116 10.5662 18.8116H16.1735C16.6223 18.8116 17.0493 18.6246 17.3517 18.2911L19.1252 16.3461H21.1792V17.2687C21.1792 17.5929 21.4442 17.8578 21.7683 17.8578H23.3766C23.6977 17.8578 23.9595 17.596 23.9595 17.275V5.91703C23.9564 5.60222 23.6977 5.3404 23.3735 5.3404ZM17.4171 11.8578C17.4171 12.2225 17.2177 12.5186 16.9683 12.5186H8.64C8.39376 12.5186 8.19117 12.2225 8.19117 11.8578V11.1066C8.19117 10.742 8.39065 10.4459 8.64 10.4459H16.9683C17.2145 10.4459 17.4171 10.742 17.4171 11.1066V11.8578Z" fill="#16162D"/>
</svg>
