<svg width="18" height="10" viewBox="0 0 18 10" fill="none" xmlns="http://www.w3.org/2000/svg">
<path d="M17.0312 0.6875C16.9688 1 16.7188 1.51042 16.2812 2.21875C15.8646 2.92708 15.4792 3.55208 15.125 4.09375C14.7708 4.61458 14.5833 4.88542 14.5625 4.90625C14.4375 5.09375 14.375 5.22917 14.375 5.3125C14.375 5.39583 14.4375 5.54167 14.5625 5.75C14.5625 5.75 14.625 5.82292 14.75 5.96875C14.8958 6.11458 15.0625 6.28125 15.25 6.46875C15.4375 6.65625 15.6458 6.875 15.875 7.125C16.1042 7.375 16.3125 7.625 16.5 7.875C16.7083 8.10417 16.8854 8.34375 17.0312 8.59375C17.1979 8.84375 17.3125 9.05208 17.375 9.21875C17.5208 9.73958 17.3125 10 16.75 10H14.9062C14.7604 10 14.6354 9.97917 14.5312 9.9375C14.4271 9.89583 14.3125 9.82292 14.1875 9.71875C14.0625 9.61458 13.9479 9.5 13.8438 9.375C13.7396 9.25 13.5833 9.07292 13.375 8.84375C13.1667 8.61458 12.9583 8.39583 12.75 8.1875C11.9167 7.39583 11.3021 7 10.9062 7C10.6562 7 10.5104 7.07292 10.4688 7.21875C10.4271 7.36458 10.4062 7.78125 10.4062 8.46875C10.4271 8.80208 10.4375 9.07292 10.4375 9.28125C10.4375 9.53125 10.3542 9.71875 10.1875 9.84375C10.0208 9.94792 9.65625 10 9.09375 10C8.11458 10 7.125 9.70833 6.125 9.125C5.125 8.54167 4.25 7.70833 3.5 6.625C2.79167 5.66667 2.19792 4.71875 1.71875 3.78125C1.26042 2.82292 0.958333 2.09375 0.8125 1.59375C0.666667 1.09375 0.59375 0.739583 0.59375 0.53125C0.59375 0.177083 0.802083 0 1.21875 0H3.0625C3.29167 0 3.45833 0.0520833 3.5625 0.15625C3.6875 0.260417 3.79167 0.447917 3.875 0.71875C4.3125 1.98958 4.84375 3.125 5.46875 4.125C6.11458 5.125 6.60417 5.625 6.9375 5.625C7.0625 5.625 7.14583 5.58333 7.1875 5.5C7.25 5.39583 7.28125 5.20833 7.28125 4.9375V2.21875C7.26042 1.92708 7.20833 1.67708 7.125 1.46875C7.04167 1.26042 6.95833 1.11458 6.875 1.03125C6.79167 0.927083 6.70833 0.822917 6.625 0.71875C6.5625 0.614583 6.53125 0.520833 6.53125 0.4375C6.53125 0.354167 6.55208 0.28125 6.59375 0.21875C6.63542 0.15625 6.6875 0.104167 6.75 0.0625C6.83333 0.0208333 6.91667 0 7 0H9.90625C10.2396 0 10.4062 0.229167 10.4062 0.6875V4.3125C10.4062 4.66667 10.5 4.84375 10.6875 4.84375C10.8958 4.84375 11.1875 4.65625 11.5625 4.28125C11.9583 3.84375 12.3438 3.3125 12.7188 2.6875C13.0938 2.0625 13.375 1.54167 13.5625 1.125L13.8438 0.53125C13.9896 0.177083 14.25 0 14.625 0H16.4688C16.9688 0 17.1562 0.229167 17.0312 0.6875Z" fill="#16162D"/>
</svg>
