<svg width="20" height="21" viewBox="0 0 20 21" fill="none" xmlns="http://www.w3.org/2000/svg">
<path d="M19.5312 10.7344C19.5312 13.4948 18.6589 15.7604 16.9141 17.5312C15.1953 19.3021 12.9427 20.1875 10.1562 20.1875C7.47396 20.1875 5.18229 19.25 3.28125 17.375C1.40625 15.474 0.46875 13.1823 0.46875 10.5C0.46875 7.81771 1.40625 5.53906 3.28125 3.66406C5.18229 1.76302 7.47396 0.8125 10.1562 0.8125C12.6823 0.8125 14.8438 1.65885 16.6406 3.35156L14.0234 5.89062C13.1901 5.08333 12.1875 4.61458 11.0156 4.48438C9.86979 4.32812 8.78906 4.47135 7.77344 4.91406C6.78385 5.33073 5.92448 6.04688 5.19531 7.0625C4.49219 8.05208 4.14062 9.19792 4.14062 10.5C4.14062 12.1927 4.72656 13.638 5.89844 14.8359C7.07031 16.0339 8.48958 16.6328 10.1562 16.6328C11.0677 16.6328 11.875 16.4896 12.5781 16.2031C13.3073 15.8906 13.8672 15.513 14.2578 15.0703C14.6745 14.6016 14.987 14.1458 15.1953 13.7031C15.4297 13.2604 15.5859 12.8438 15.6641 12.4531H10.1562V9.09375H19.375C19.4792 9.66667 19.5312 10.2135 19.5312 10.7344Z" fill="#C4302B"/>
</svg>
