<svg width="32" height="32" viewBox="0 0 32 32" fill="none" xmlns="http://www.w3.org/2000/svg">
<rect width="32" height="32" rx="6" fill="#FFD223"/>
<g clip-path="url(#clip0)">
<path d="M27.4424 5.13682C26.6964 4.3908 25.4889 4.39071 24.7428 5.13682L22.8303 7.04928C22.0459 6.65327 21.0553 6.77604 20.3891 7.44223C20.2752 7.55614 14.1048 13.7265 13.852 13.9793C13.4278 13.5727 12.873 13.3488 12.2835 13.3488C11.6775 13.3488 11.1077 13.5848 10.6792 14.0133L9.68822 15.0042C9.37748 15.3149 9.37725 15.8194 9.68822 16.1303L10.6946 17.1367L9.63408 18.1973C15.7916 22.1192 15.3821 21.8568 15.4332 21.8937L15.4425 21.8845L16.4489 22.8909C16.7597 23.2019 17.264 23.2019 17.575 22.8909L18.5659 21.9C19.4388 21.027 19.4497 19.6143 18.5998 18.7271C18.905 18.4219 24.8949 12.4321 25.1369 12.19C25.7962 11.5307 25.9266 10.5404 25.5292 9.74947L27.4424 7.83636C28.1866 7.09203 28.1866 5.88101 27.4424 5.13682Z" fill="#16162D"/>
<path d="M8.48103 19.3502C7.49066 20.3406 7.43848 20.3928 7.31445 20.5168C13.4717 24.4386 13.0626 24.1764 13.1136 24.2133L14.2815 23.0454C14.2141 23.0025 8.53353 19.3848 8.48103 19.3502Z" fill="#16162D"/>
<path d="M6.17122 21.6771C6.16766 21.6748 6.16452 21.6721 6.161 21.6698L4.69451 23.1363C3.7685 24.0623 3.7685 25.5691 4.69451 26.495L5.38901 27.1895C5.69989 27.5005 6.20417 27.5006 6.51509 27.1895C6.82606 26.8786 6.82606 26.3745 6.51509 26.0635L5.82064 25.369C5.51483 25.0631 5.51478 24.5682 5.82064 24.2623L6.70667 23.3763C6.43649 24.0671 6.58006 24.8824 7.13816 25.4404C7.87621 26.1785 9.06402 26.1917 9.81885 25.4812C10.1059 25.6233 10.4238 25.6989 10.7535 25.6989C11.1777 25.6989 11.5828 25.5745 11.9272 25.3431L6.17122 21.6771Z" fill="#16162D"/>
</g>
<defs>
<clipPath id="clip0">
<rect width="24" height="24" fill="white" transform="translate(4 4)"/>
</clipPath>
</defs>
</svg>
