<svg width="32" height="32" viewBox="0 0 32 32" fill="none" xmlns="http://www.w3.org/2000/svg">
<rect width="32" height="32" rx="6" fill="#FFD223"/>
<path d="M28.4084 9.68143V8.29529C28.4084 7.85049 28.0478 7.48993 27.603 7.48993C27.1582 7.48993 26.7977 7.85049 26.7977 8.29529V9.68138C26.4717 9.92625 26.2608 10.3161 26.2608 10.7552V16.6076C26.2608 16.8745 26.4771 17.0908 26.744 17.0908H26.7977V26.3892H24.2742V17.047H24.3279C24.5948 17.047 24.8111 16.8306 24.8111 16.5638V10.7114C24.8111 10.2723 24.6001 9.88247 24.2742 9.63755V8.29529C24.2742 7.85049 23.9136 7.48993 23.4688 7.48993C23.024 7.48993 22.6634 7.85049 22.6634 8.29529V9.6376C22.3375 9.88247 22.1265 10.2723 22.1265 10.7115V16.5638C22.1265 16.8307 22.3429 17.047 22.6097 17.047H22.6634V26.3892H17.3212V24.4564H18.7977C19.2425 24.4564 19.603 24.0958 19.603 23.651V4.80536C19.603 4.36056 19.2425 4 18.7977 4H5.85809C5.41334 4 5.05273 4.36056 5.05273 4.80536V23.651C5.05273 24.0958 5.4133 24.4564 5.85809 24.4564H15.7104V27.1946C15.7104 27.6394 16.071 28 16.5158 28H27.6031C28.0479 28 28.4084 27.6394 28.4084 27.1946V17.0908H28.4622C28.7291 17.0908 28.9453 16.8744 28.9453 16.6076V10.7552C28.9453 10.3161 28.7344 9.92625 28.4084 9.68143ZM8.00576 23.0604C7.56096 23.0604 7.2004 22.6998 7.2004 22.255C7.2004 21.8102 7.56096 21.4497 8.00576 21.4497C8.45056 21.4497 8.81112 21.8102 8.81112 22.255C8.81112 22.6998 8.45056 23.0604 8.00576 23.0604ZM8.20156 16.8733C7.71214 14.0184 10.1873 11.5456 13.0401 12.0347C12.8943 12.129 12.7572 12.2389 12.6317 12.3645C8.18763 16.8086 8.40195 16.5637 8.20156 16.8733ZM9.67029 17.6038L13.7706 13.5035C13.9383 13.3357 14.1582 13.2518 14.378 13.2518C14.5979 13.2518 14.8177 13.3357 14.9855 13.5035C15.321 13.839 15.321 14.3829 14.9855 14.7184L10.8852 18.8187C10.5497 19.1541 10.0058 19.1541 9.67029 18.8187C9.3348 18.4832 9.3348 17.9392 9.67029 17.6038ZM10.6366 23.0604C10.1918 23.0604 9.83126 22.6998 9.83126 22.255C9.83126 21.8102 10.1918 21.4497 10.6366 21.4497C11.0814 21.4497 11.442 21.8102 11.442 22.255C11.442 22.6998 11.0814 23.0604 10.6366 23.0604ZM11.6157 20.2874C11.9238 20.0881 11.6727 20.309 16.1244 15.8573C16.2501 15.7317 16.36 15.5947 16.4543 15.4489C16.9445 18.3091 14.4636 20.7757 11.6157 20.2874ZM17.1333 9.38255C17.1333 9.67163 16.8989 9.90605 16.6098 9.90605H8.04603C7.75695 9.90605 7.52253 9.67168 7.52253 9.38255V6.72484C7.52253 6.43576 7.7569 6.20134 8.04603 6.20134H16.6098C16.8989 6.20134 17.1333 6.43571 17.1333 6.72484V9.38255Z" fill="#16162D"/>
</svg>
