<svg width="40" height="18" viewBox="0 0 40 18" fill="none" xmlns="http://www.w3.org/2000/svg">
<path d="M39.1333 9.40431C38.6909 8.3911 37.8204 7.82741 36.5182 7.34935C35.505 6.97475 34.9485 6.6822 34.267 5.8331C31.7447 2.70428 30.9063 0 27.1532 0L18.3268 0.067786C16.807 0.067786 15.4477 1.43064 14.2419 2.37963L9.33994 6.93906C9.04739 7.2102 8.68707 7.39572 8.29463 7.47778L2.86824 8.59088C2.36877 8.72288 1.96564 9.09391 1.79083 9.58982L0.156842 14.0922C-0.160678 15.1696 0.0141445 15.6548 0.588534 16.4896C1.16292 17.328 1.64454 17.7883 1.64454 17.7883L5.72949 17.7918C5.72592 17.7098 5.7188 17.2995 5.7188 17.2174C5.7188 14.6808 7.73094 12.6259 10.214 12.6259C12.6971 12.6259 14.7092 14.6808 14.7092 17.2174C14.7092 17.2995 14.7021 17.7133 14.6985 17.7918H25.1696C25.166 17.7098 25.1589 17.2995 25.1589 17.2174C25.1589 14.6808 27.171 12.6259 29.6541 12.6259C32.1372 12.6259 34.1493 14.6808 34.1493 17.2174C34.1493 17.2995 34.1422 17.7133 34.1386 17.7918H37.378C39.3866 17.7918 40.0537 16.1043 39.9967 14.0708C39.9289 12.0336 39.6149 10.4996 39.1333 9.40431ZM22.1371 8.29121C22.1371 8.64084 21.8695 8.92624 21.5413 8.92624H11.5626C11.2022 8.92624 11.0346 8.44818 11.3057 8.19845C11.3057 8.19845 16.1042 3.54268 16.7392 3.06818C17.3743 2.59369 17.9808 2.22265 18.7835 2.22265L21.5377 2.22623C21.8659 2.22623 22.1335 2.51163 22.1335 2.86125V8.29121H22.1371ZM32.4047 8.92624H24.0172C23.689 8.92624 23.4214 8.64084 23.4214 8.29121V2.86482C23.4214 2.5152 23.6854 2.22977 24.0136 2.22977L27.5599 2.21194C28.9727 2.20481 29.5257 3.06104 30.175 3.97436C30.9491 5.06605 32.5617 7.57412 32.8257 8.04862C33.0862 8.51954 32.7401 8.92624 32.4047 8.92624Z" fill="#FFD223"/>
</svg>
