<svg width="23" height="26" viewBox="0 0 23 26" fill="none" xmlns="http://www.w3.org/2000/svg">
<path fill-rule="evenodd" clip-rule="evenodd" d="M19 6C20.1046 6 21 5.10457 21 4C21 2.89543 20.1046 2 19 2C17.8954 2 17 2.89543 17 4C17 5.10457 17.8954 6 19 6ZM19 8C21.2091 8 23 6.20914 23 4C23 1.79086 21.2091 0 19 0C16.7909 0 15 1.79086 15 4C15 4.28015 15.0288 4.55357 15.0836 4.81746L6.56366 9.92942C5.86946 9.3492 4.97551 9 4 9C1.79086 9 0 10.7909 0 13C0 15.2091 1.79086 17 4 17C4.97551 17 5.86946 16.6508 6.56366 16.0706L15.0836 21.1825C15.0288 21.4464 15 21.7199 15 22C15 24.2091 16.7909 26 19 26C21.2091 26 23 24.2091 23 22C23 19.7909 21.2091 18 19 18C17.791 18 16.7072 18.5364 15.9737 19.3842L7.73303 14.4398C7.90546 13.9931 8 13.5076 8 13C8 12.4924 7.90546 12.0069 7.73303 11.5602L15.9737 6.61576C16.7072 7.46358 17.791 8 19 8ZM4 15C5.10457 15 6 14.1046 6 13C6 11.8954 5.10457 11 4 11C2.89543 11 2 11.8954 2 13C2 14.1046 2.89543 15 4 15ZM21 22C21 23.1046 20.1046 24 19 24C17.8954 24 17 23.1046 17 22C17 20.8954 17.8954 20 19 20C20.1046 20 21 20.8954 21 22Z" fill="#919191"/>
</svg>
