<svg width="22" height="13" viewBox="0 0 22 13" fill="none" xmlns="http://www.w3.org/2000/svg">
<path d="M21.0391 1.10938C20.9609 1.5 20.6484 2.13802 20.1016 3.02344C19.5807 3.90885 19.099 4.6901 18.6562 5.36719C18.2135 6.01823 17.9792 6.35677 17.9531 6.38281C17.7969 6.61719 17.7188 6.78646 17.7188 6.89062C17.7188 6.99479 17.7969 7.17708 17.9531 7.4375C17.9531 7.4375 18.0312 7.52865 18.1875 7.71094C18.3698 7.89323 18.5781 8.10156 18.8125 8.33594C19.0469 8.57031 19.3073 8.84375 19.5938 9.15625C19.8802 9.46875 20.1406 9.78125 20.375 10.0938C20.6354 10.3802 20.8568 10.6797 21.0391 10.9922C21.2474 11.3047 21.3906 11.5651 21.4688 11.7734C21.651 12.4245 21.3906 12.75 20.6875 12.75H18.3828C18.2005 12.75 18.0443 12.724 17.9141 12.6719C17.7839 12.6198 17.6406 12.5286 17.4844 12.3984C17.3281 12.2682 17.1849 12.125 17.0547 11.9688C16.9245 11.8125 16.7292 11.5911 16.4688 11.3047C16.2083 11.0182 15.9479 10.7448 15.6875 10.4844C14.6458 9.49479 13.8776 9 13.3828 9C13.0703 9 12.888 9.09115 12.8359 9.27344C12.7839 9.45573 12.7578 9.97656 12.7578 10.8359C12.7839 11.2526 12.7969 11.5911 12.7969 11.8516C12.7969 12.1641 12.6927 12.3984 12.4844 12.5547C12.276 12.6849 11.8203 12.75 11.1172 12.75C9.89323 12.75 8.65625 12.3854 7.40625 11.6562C6.15625 10.9271 5.0625 9.88542 4.125 8.53125C3.23958 7.33333 2.4974 6.14844 1.89844 4.97656C1.32552 3.77865 0.947917 2.86719 0.765625 2.24219C0.583333 1.61719 0.492188 1.17448 0.492188 0.914062C0.492188 0.471354 0.752604 0.25 1.27344 0.25H3.57812C3.86458 0.25 4.07292 0.315104 4.20312 0.445312C4.35938 0.575521 4.48958 0.809896 4.59375 1.14844C5.14062 2.73698 5.80469 4.15625 6.58594 5.40625C7.39323 6.65625 8.00521 7.28125 8.42188 7.28125C8.57812 7.28125 8.68229 7.22917 8.73438 7.125C8.8125 6.99479 8.85156 6.76042 8.85156 6.42188V3.02344C8.82552 2.65885 8.76042 2.34635 8.65625 2.08594C8.55208 1.82552 8.44792 1.64323 8.34375 1.53906C8.23958 1.40885 8.13542 1.27865 8.03125 1.14844C7.95312 1.01823 7.91406 0.901042 7.91406 0.796875C7.91406 0.692708 7.9401 0.601562 7.99219 0.523438C8.04427 0.445312 8.10938 0.380208 8.1875 0.328125C8.29167 0.276042 8.39583 0.25 8.5 0.25H12.1328C12.5495 0.25 12.7578 0.536458 12.7578 1.10938V5.64062C12.7578 6.08333 12.875 6.30469 13.1094 6.30469C13.3698 6.30469 13.7344 6.07031 14.2031 5.60156C14.6979 5.05469 15.1797 4.39062 15.6484 3.60938C16.1172 2.82812 16.4688 2.17708 16.7031 1.65625L17.0547 0.914062C17.237 0.471354 17.5625 0.25 18.0312 0.25H20.3359C20.9609 0.25 21.1953 0.536458 21.0391 1.10938Z" fill="#4C75A3"/>
</svg>
