<svg width="10" height="16" viewBox="0 0 10 16" fill="none" xmlns="http://www.w3.org/2000/svg">
<path d="M8.59375 10.4375C7.90625 10.875 6.96875 11.1562 5.78125 11.2812L6.4375 11.9375L8.8125 14.3125C9.08333 14.5833 9.15625 14.8958 9.03125 15.25C8.90625 15.625 8.67708 15.8542 8.34375 15.9375C8.03125 16.0417 7.71875 15.9792 7.40625 15.75C6.98958 15.3333 6.1875 14.5312 5 13.3438L2.625 15.7188C2.35417 15.9896 2.03125 16.0625 1.65625 15.9375C1.30208 15.8125 1.07292 15.5833 0.96875 15.25C0.885417 14.9375 0.96875 14.625 1.21875 14.3125C2.80208 12.7083 3.59375 11.9062 3.59375 11.9062L4.25 11.2812C3.02083 11.1562 2.07292 10.875 1.40625 10.4375C0.84375 10.0625 0.479167 9.76042 0.3125 9.53125C0.145833 9.28125 0.15625 8.96875 0.34375 8.59375C0.46875 8.32292 0.666667 8.15625 0.9375 8.09375C1.22917 8.01042 1.59375 8.11458 2.03125 8.40625C2.11458 8.46875 2.23958 8.55208 2.40625 8.65625C2.57292 8.76042 2.90625 8.89583 3.40625 9.0625C3.92708 9.22917 4.45833 9.3125 5 9.3125C5.54167 9.3125 6.0625 9.23958 6.5625 9.09375C7.0625 8.94792 7.41667 8.79167 7.625 8.625L7.96875 8.40625C8.40625 8.11458 8.76042 8.01042 9.03125 8.09375C9.32292 8.15625 9.54167 8.32292 9.6875 8.59375C9.75 8.82292 9.79167 9 9.8125 9.125C9.83333 9.25 9.78125 9.39583 9.65625 9.5625C9.53125 9.72917 9.39583 9.875 9.25 10C9.10417 10.1042 8.88542 10.25 8.59375 10.4375ZM0.9375 4.0625C0.9375 2.9375 1.33333 1.97917 2.125 1.1875C2.91667 0.395833 3.875 0 5 0C5.72917 0 6.40625 0.1875 7.03125 0.5625C7.65625 0.916667 8.14583 1.40625 8.5 2.03125C8.875 2.63542 9.0625 3.3125 9.0625 4.0625C9.0625 5.16667 8.66667 6.11458 7.875 6.90625C7.08333 7.69792 6.125 8.09375 5 8.09375C3.875 8.09375 2.91667 7.69792 2.125 6.90625C1.33333 6.11458 0.9375 5.16667 0.9375 4.0625ZM3 4.0625C3 4.60417 3.19792 5.07292 3.59375 5.46875C3.98958 5.84375 4.45833 6.03125 5 6.03125C5.54167 6.03125 6.01042 5.84375 6.40625 5.46875C6.80208 5.07292 7 4.60417 7 4.0625C7 3.5 6.80208 3.03125 6.40625 2.65625C6.01042 2.26042 5.54167 2.0625 5 2.0625C4.64583 2.0625 4.3125 2.15625 4 2.34375C3.6875 2.51042 3.4375 2.75 3.25 3.0625C3.08333 3.35417 3 3.6875 3 4.0625Z" fill="#16162D"/>
</svg>
