<svg width="35" height="26" viewBox="0 0 35 26" fill="none" xmlns="http://www.w3.org/2000/svg">
<path d="M33.1758 6.87935H30.893C30.4329 6.87935 30.0568 7.2554 30.0568 7.7155V9.05599H25.9646L24.7038 7.02978C24.2967 6.33521 23.5535 5.91049 22.7528 5.91049H19.4215V3.15876H23.9207C24.4383 3.15876 24.8586 2.73848 24.8586 2.22087V0.937891C24.8586 0.42028 24.4383 0 23.9207 0H11.7458C11.2282 0 10.8079 0.42028 10.8079 0.937891V2.22087C10.8079 2.73848 11.2282 3.15876 11.7458 3.15876H15.7761V5.91049H13.1305C12.4802 5.91049 11.8608 6.18922 11.4317 6.67586L9.22852 9.05156H7.34831C6.74221 9.05156 6.25557 9.54262 6.25557 10.1443V13.9091H3.26493V8.76842C3.26493 8.25081 2.84465 7.83053 2.32703 7.83053H0.937891C0.42028 7.83053 0 8.25081 0 8.76842V22.3767C0 22.8943 0.42028 23.3146 0.937891 23.3146H2.32703C2.84465 23.3146 3.26493 22.8943 3.26493 22.3767V17.559H6.25557V21.4079C6.25557 22.014 6.74664 22.5006 7.34831 22.5006H10.8079L13.3252 25.2612C13.7543 25.7301 14.3604 26 14.9974 26H22.9563C23.5933 26 24.1994 25.7346 24.6285 25.2612L27.1458 22.5006H30.0612V23.8101C30.0612 24.2702 30.4373 24.6462 30.8974 24.6462H33.1802C33.6359 24.6462 34.0075 24.2746 34.0075 23.819V7.69781C34.0031 7.25099 33.6359 6.87935 33.1758 6.87935ZM24.7214 16.13C24.7214 16.6476 24.4383 17.0679 24.0844 17.0679H12.2634C11.9139 17.0679 11.6263 16.6476 11.6263 16.13V15.0638C11.6263 14.5462 11.9095 14.1259 12.2634 14.1259H24.0844C24.4339 14.1259 24.7214 14.5462 24.7214 15.0638V16.13Z" fill="#FFD223"/>
</svg>
