<svg width="32" height="32" viewBox="0 0 32 32" fill="none" xmlns="http://www.w3.org/2000/svg">
<rect width="32" height="32" rx="6" fill="#FFD223"/>
<g clip-path="url(#clip0)">
<path d="M10.3328 14.2646C10.9437 14.1825 11.5546 14.3923 11.9877 14.8254L13.0818 15.9195L14.1167 14.8892L12.6214 13.3984C12.3889 13.1659 12.3889 12.7875 12.6214 12.555C12.8539 12.3225 13.2323 12.3225 13.4648 12.555L14.9601 14.0503L15.995 13.02L14.8963 11.9213C14.4632 11.4882 14.2535 10.8728 14.3355 10.2664C14.5179 8.88049 14.0757 7.43075 13.0134 6.36396C11.9284 5.27893 10.4422 4.84127 9.03349 5.05098C8.8101 5.08289 8.71892 5.36099 8.87849 5.52055L10.2872 6.92927C10.9574 7.59943 10.9574 8.68446 10.2872 9.35006L9.421 10.2163C8.75083 10.8864 7.66581 10.8864 7.0002 10.2163L5.58693 8.80755C5.42737 8.64799 5.15383 8.73917 5.11736 8.96255C4.90765 10.3713 5.3453 11.8575 6.43033 12.9425C7.49713 14.0047 8.94687 14.447 10.3328 14.2646Z" fill="#16162D"/>
<path d="M19.0948 16.1201L18.0599 17.1504L24.2054 23.2959C24.4379 23.5284 24.4379 23.9068 24.2054 24.1393C23.9729 24.3718 23.5945 24.3718 23.362 24.1393L17.2165 17.9938L16.1816 19.0241L22.514 25.3565C23.3164 26.1589 24.6157 26.1543 25.4181 25.3519C26.2204 24.5496 26.2204 23.2503 25.4226 22.4479L19.0948 16.1201Z" fill="#16162D"/>
<path d="M21.4704 12.017H24.2012L26.932 6.55999L25.5689 5.19687L20.1073 7.92312V10.6539L12.6854 18.0531L11.3496 16.7219L5.97003 22.1014C4.84853 23.2229 4.84853 25.0374 5.97003 26.1589C7.09153 27.2804 8.90599 27.2804 10.0275 26.1589L15.407 20.7793L14.0439 19.4162L21.4704 12.017Z" fill="#16162D"/>
</g>
<defs>
<clipPath id="clip0">
<rect width="22" height="22" fill="white" transform="translate(5 5)"/>
</clipPath>
</defs>
</svg>
