<svg width="37" height="26" viewBox="0 0 37 26" fill="none" xmlns="http://www.w3.org/2000/svg">
<path d="M36.159 4.2489V0.981201C36.159 0.438108 35.7209 0 35.1778 0H27.2824C26.7393 0 26.3012 0.438108 26.3012 0.981201V4.2489C26.3012 4.79199 26.7393 5.2301 27.2824 5.2301H29.7469V11.2224H22.3809C21.6279 9.04544 19.6837 7.2747 16.9317 7.2747C14.1797 7.2747 12.2355 9.05001 11.4825 11.2224H8.548C8.10075 10.1408 7.35229 9.75741 6.41214 9.3558V5.2301H8.87659C9.41969 5.2301 9.85781 4.79199 9.85781 4.2489V0.981201C9.85781 0.438108 9.41969 0 8.87659 0H0.981215C0.438122 0 0 0.438108 0 0.981201V4.2489C0 4.79199 0.438122 5.2301 0.981215 5.2301H3.44567V9.3558C1.91223 9.8213 0.86712 11.1494 0.86712 12.9019C0.86712 14.6544 1.88029 15.9642 3.44567 16.4479V20.7698H0.981215C0.438122 20.7698 0 21.208 0 21.7511V25.0188C0 25.5619 0.438122 26 0.981215 26H8.87659C9.41969 26 9.85781 25.5619 9.85781 25.0188V21.7511C9.85781 21.208 9.41969 20.7698 8.87659 20.7698H6.41214V16.4479C7.35229 16.0509 8.10075 15.663 8.548 14.5814H11.4825C12.2355 16.7583 14.1569 18.529 16.9317 18.529C19.7065 18.529 21.6279 16.7537 22.3809 14.5814H29.7469V20.7653H27.2824C26.7393 20.7653 26.3012 21.2034 26.3012 21.7465V25.0142C26.3012 25.5573 26.7393 25.9954 27.2824 25.9954H35.1778C35.7209 25.9954 36.159 25.5573 36.159 25.0142V21.7465C36.159 21.2034 35.7209 20.7653 35.1778 20.7653H32.7133V5.22553H35.1778C35.7209 5.23466 36.159 4.79199 36.159 4.2489ZM16.9317 15.4576C15.5215 15.4576 14.3805 14.3166 14.3805 12.9064C14.3805 11.4962 15.5215 10.3553 16.9317 10.3553C18.3419 10.3553 19.4829 11.4962 19.4829 12.9064C19.4783 14.3121 18.3374 15.4576 16.9317 15.4576Z" fill="#FFD223"/>
</svg>
