<svg width="32" height="26" viewBox="0 0 32 26" fill="none" xmlns="http://www.w3.org/2000/svg">
<path d="M26.4565 4.66335V11.7614C26.4565 11.999 26.2613 12.1942 26.0237 12.1942H17.8438V4.66335H14.8611V12.1942H6.25267V4.66335H3.27002V22.7077H6.25267V15.1768H14.8611V22.7077H17.8438V15.1768H26.8935C28.2978 15.1768 29.4349 14.0398 29.4349 12.6354V4.66759H26.4565V4.66335Z" fill="#FFD223"/>
<path d="M6.99305 6.99306C8.28044 5.70567 8.28044 3.61839 6.99305 2.331C5.70566 1.04362 3.6184 1.04363 2.33101 2.33102C1.04362 3.61841 1.04362 5.70565 2.33101 6.99304C3.6184 8.28043 5.70566 8.28045 6.99305 6.99306Z" fill="#FFD223"/>
<path d="M19.5588 5.4506C19.9772 3.67873 18.88 1.90319 17.1081 1.48481C15.3362 1.06642 13.5607 2.16362 13.1423 3.93548C12.7239 5.70735 13.8211 7.4829 15.593 7.90129C17.3649 8.31968 19.1404 7.22246 19.5588 5.4506Z" fill="#FFD223"/>
<path d="M4.66621 26C6.48687 26 7.96281 24.5241 7.96281 22.7034C7.96281 20.8827 6.48687 19.4068 4.66621 19.4068C2.84555 19.4068 1.36963 20.8827 1.36963 22.7034C1.36963 24.5241 2.84555 26 4.66621 26Z" fill="#FFD223"/>
<path d="M16.3542 26C18.1749 26 19.6508 24.5241 19.6508 22.7034C19.6508 20.8827 18.1749 19.4068 16.3542 19.4068C14.5336 19.4068 13.0576 20.8827 13.0576 22.7034C13.0576 24.5241 14.5336 26 16.3542 26Z" fill="#FFD223"/>
<path d="M31.107 5.19303C31.3987 3.39586 30.1783 1.70251 28.3811 1.41084C26.5839 1.11917 24.8906 2.33963 24.5989 4.1368C24.3072 5.93397 25.5277 7.6273 27.3249 7.91897C29.122 8.21064 30.8154 6.9902 31.107 5.19303Z" fill="#FFD223"/>
</svg>
