<svg width="14" height="21" viewBox="0 0 14 21" fill="none" xmlns="http://www.w3.org/2000/svg">
<path d="M11.4922 13.5469C10.6328 14.0938 9.46094 14.4453 7.97656 14.6016L8.79688 15.4219L11.7656 18.3906C12.1042 18.7292 12.1953 19.1198 12.0391 19.5625C11.8828 20.0312 11.5964 20.3177 11.1797 20.4219C10.7891 20.5521 10.3984 20.474 10.0078 20.1875C9.48698 19.6667 8.48438 18.6641 7 17.1797L4.03125 20.1484C3.69271 20.487 3.28906 20.5781 2.82031 20.4219C2.3776 20.2656 2.09115 19.9792 1.96094 19.5625C1.85677 19.1719 1.96094 18.7812 2.27344 18.3906C4.2526 16.3854 5.24219 15.3828 5.24219 15.3828L6.0625 14.6016C4.52604 14.4453 3.34115 14.0938 2.50781 13.5469C1.80469 13.0781 1.34896 12.7005 1.14062 12.4141C0.932292 12.1016 0.945312 11.7109 1.17969 11.2422C1.33594 10.9036 1.58333 10.6953 1.92188 10.6172C2.28646 10.513 2.74219 10.6432 3.28906 11.0078C3.39323 11.0859 3.54948 11.1901 3.75781 11.3203C3.96615 11.4505 4.38281 11.6198 5.00781 11.8281C5.65885 12.0365 6.32292 12.1406 7 12.1406C7.67708 12.1406 8.32812 12.0495 8.95312 11.8672C9.57812 11.6849 10.0208 11.4896 10.2812 11.2812L10.7109 11.0078C11.2578 10.6432 11.7005 10.513 12.0391 10.6172C12.4036 10.6953 12.6771 10.9036 12.8594 11.2422C12.9375 11.5286 12.9896 11.75 13.0156 11.9062C13.0417 12.0625 12.9766 12.2448 12.8203 12.4531C12.6641 12.6615 12.4948 12.8438 12.3125 13C12.1302 13.1302 11.8568 13.3125 11.4922 13.5469ZM1.92188 5.57812C1.92188 4.17188 2.41667 2.97396 3.40625 1.98438C4.39583 0.994792 5.59375 0.5 7 0.5C7.91146 0.5 8.75781 0.734375 9.53906 1.20312C10.3203 1.64583 10.9323 2.25781 11.375 3.03906C11.8438 3.79427 12.0781 4.64062 12.0781 5.57812C12.0781 6.95833 11.5833 8.14323 10.5938 9.13281C9.60417 10.1224 8.40625 10.6172 7 10.6172C5.59375 10.6172 4.39583 10.1224 3.40625 9.13281C2.41667 8.14323 1.92188 6.95833 1.92188 5.57812ZM4.5 5.57812C4.5 6.25521 4.7474 6.84115 5.24219 7.33594C5.73698 7.80469 6.32292 8.03906 7 8.03906C7.67708 8.03906 8.26302 7.80469 8.75781 7.33594C9.2526 6.84115 9.5 6.25521 9.5 5.57812C9.5 4.875 9.2526 4.28906 8.75781 3.82031C8.26302 3.32552 7.67708 3.07812 7 3.07812C6.55729 3.07812 6.14062 3.19531 5.75 3.42969C5.35938 3.63802 5.04688 3.9375 4.8125 4.32812C4.60417 4.69271 4.5 5.10938 4.5 5.57812Z" fill="#ED812B"/>
</svg>
