<svg width="83" height="18" viewBox="0 0 83 18" fill="none" xmlns="http://www.w3.org/2000/svg">
<path fill-rule="evenodd" clip-rule="evenodd" d="M16.9114 14.2638C17.8125 11.4337 18.6708 9.55639 19.5863 6.8401C19.9154 5.90149 20.1871 5.37524 20.1013 4.83477C19.944 3.96725 19.3574 3.72553 18.7852 4.46507C18.6994 4.60726 18.5993 4.72102 18.5278 4.84898C18.1845 5.4179 17.8841 6.01524 17.4835 6.71198C16.2819 8.7742 15.3808 11.4906 14.7513 12.415C13.936 13.6949 12.8059 13.4532 12.4626 12.1591C11.5471 12.8274 10.4456 12.1164 10.4885 10.9502C10.5171 9.91201 10.789 8.58935 10.932 7.52277C11.1179 6.21432 11.4898 2.88646 11.4612 1.09442C11.4326 0.866906 11.4183 0.710493 11.3754 0.539867C11.1608 -0.0717003 10.5314 -0.1428 10.0022 0.226901C9.70175 0.426105 9.44431 0.866906 9.31559 1.43581C9.08662 2.26067 9.01511 3.15662 8.90069 4.05258C8.82918 4.64992 7.8422 9.98311 7.61323 10.4097C6.89812 11.8603 4.3804 9.42842 2.50657 8.87373C0.432343 8.30496 -0.85498 9.37154 0.675617 10.2817C1.6912 10.9075 5.08135 13.5385 5.92531 14.4344C6.13998 14.6479 6.18289 14.6621 6.38311 14.8469C6.68345 15.1455 6.86952 15.4158 7.19846 15.7002C9.08662 17.421 12.4197 18.2317 14.9373 16.9376C15.4523 16.6673 15.5667 16.5535 15.9244 16.1838C16.5251 15.5723 16.6538 15.0318 16.9114 14.2638Z" fill="#16162D"/>
<path fill-rule="evenodd" clip-rule="evenodd" d="M48.3799 17.5626H51.1121L52.2421 12.3433C53.7441 12.1585 53.787 13.1966 54.0159 14.3201L54.6167 17.5626H57.3919L56.7195 14.249C56.5622 13.4384 56.1902 12.7843 55.8899 12.4571C55.7039 12.2723 55.5465 12.1869 55.3319 12.0163C55.7755 11.746 56.1187 11.6323 56.4621 11.419C57.0199 11.0918 57.5492 10.6368 58.0785 9.71238C58.7221 8.58878 59.0512 6.86797 58.4074 5.60218C57.7637 4.29374 56.6909 4.03779 54.8026 4.03779C53.0718 4.03779 51.3553 4.00935 49.6244 4.03779L49.2095 6.17109H50.6829L48.3799 17.5626ZM52.6999 10.21L53.5296 6.21375C54.7311 6.17109 56.7195 5.87249 55.847 8.48924C55.2175 10.3522 54.0302 10.2385 52.6999 10.21Z" fill="#16162D"/>
<path fill-rule="evenodd" clip-rule="evenodd" d="M74.042 17.5629H76.4737L77.332 13.78C78.3763 13.6946 78.4621 14.235 78.691 15.3444L79.1345 17.5771L81.6521 17.5488L81.3087 15.8421C80.9368 14.235 81.0798 13.9364 80.1356 12.9266L82.9965 8.78808L80.3932 8.81652C79.7495 9.68404 79.163 10.765 78.5909 11.6609H77.7755C77.7326 10.9072 79.1202 5.54554 79.3204 4.05225H75.3008L74.9145 6.18555H76.3736C76.1448 8.00589 74.0706 16.6385 74.042 17.5629Z" fill="#16162D"/>
<path fill-rule="evenodd" clip-rule="evenodd" d="M28.1386 14.0502H25.8784L25.5781 15.4013H23.7471L26.1217 4.05225L21.7587 4.10912L21.2582 6.19976H22.8458L20.4141 17.5629L27.3947 17.5344L28.1386 14.0502Z" fill="#16162D"/>
<path fill-rule="evenodd" clip-rule="evenodd" d="M59.9241 17.7762C60.1386 17.8615 60.3819 17.9184 60.7108 17.9611C62.9567 18.1886 64.0867 17.3637 64.7733 16.4678C65.4027 15.6571 65.603 15.0456 65.8605 14.0643C66.2324 12.7274 66.4326 11.1916 65.5887 10.0396C64.6875 8.81642 62.8566 8.4325 61.1256 9.1436C59.7668 9.71251 58.7653 10.8644 58.2648 12.4288C58.0072 13.2394 57.8499 14.178 57.9357 15.074C58.0502 16.354 58.6795 17.3068 59.9241 17.7762ZM60.6822 14.8749C60.5249 14.3202 60.6107 13.7088 60.8252 12.8982C61.0541 12.0305 61.6978 10.58 62.785 10.9497C63.6433 11.2057 63.6862 13.723 62.785 15.0313C62.0984 16.0696 61.0398 16.226 60.6822 14.8749Z" fill="#16162D"/>
<path fill-rule="evenodd" clip-rule="evenodd" d="M29.541 17.0651C31.0001 18.8143 33.8611 17.6196 35.1341 17.1788L34.7193 15.3442C33.5892 15.7282 31.9299 16.5672 31.4865 14.8607C33.3603 15.0171 34.9911 14.4197 35.9208 12.8127C38.2382 8.77371 32.4735 7.32307 30.0131 10.5656C29.1548 11.6892 28.7256 12.8839 28.697 14.4482C28.697 14.4339 28.5683 15.8846 29.541 17.0651ZM31.558 13.1256C31.701 12.187 32.1587 11.1203 33.017 10.9497C33.7037 10.8075 33.9755 11.3053 33.8323 11.8883C33.7751 12.1444 33.675 12.4003 33.4462 12.6278C33.017 13.0403 32.3446 13.1541 31.558 13.1256Z" fill="#16162D"/>
<path fill-rule="evenodd" clip-rule="evenodd" d="M42.3001 12.5284C42.6721 13.979 44.7891 14.1781 45.0467 14.8465C45.5331 16.0696 43.273 16.2261 41.9712 15.1878L41.0986 17.0225C41.771 17.8758 43.8451 18.1033 45.1611 17.8331C46.7489 17.5059 47.6501 16.2261 47.7216 14.6617C47.7645 13.9506 47.6072 13.5807 46.9778 13.012C46.42 12.5284 45.7763 12.3862 45.2612 12.0448C44.9895 11.8599 44.8894 11.8173 44.918 11.476C44.9609 10.8502 45.4758 10.8787 46.2339 10.9071L46.0766 11.8457L47.8505 11.8173L49.0091 8.27612L46.8347 8.30456L46.7203 8.83067C45.6332 8.75957 44.3744 8.73114 43.5161 9.39958C43.5161 9.4138 41.8425 10.7649 42.3001 12.5284Z" fill="#16162D"/>
<path fill-rule="evenodd" clip-rule="evenodd" d="M67.7625 17.2642C67.9914 17.4774 68.3348 17.6766 68.8496 17.8188C69.4218 18.0037 70.0942 18.0321 70.7379 17.9326C71.1527 17.8899 71.4532 17.7904 71.7249 17.7193C72.0683 17.6339 72.3543 17.5059 72.6976 17.3779C72.8407 17.3068 72.9981 17.2642 73.1554 17.1646L72.7405 15.3443C71.9539 15.6002 69.1358 17.0224 69.4362 13.7799C69.6221 11.9168 70.1943 10.6795 72.2828 10.9355L72.1255 11.8314L73.8849 11.803L75.0578 8.26184H72.9122L72.7548 8.88749C70.2801 8.63154 68.9497 9.32842 67.9056 10.7222C67.0473 11.8457 66.661 13.4527 66.7756 15.0882C66.8328 15.913 67.1045 16.7095 67.7625 17.2642Z" fill="#16162D"/>
<path fill-rule="evenodd" clip-rule="evenodd" d="M36.6787 17.5627H39.0676L40.4695 10.8786L41.8141 10.907L42.4865 8.83057H40.9416L41.4707 6.19958H39.3395L38.5527 8.83057H37.2795L36.8646 10.8786H37.9519L36.6787 17.5627Z" fill="#16162D"/>
<path fill-rule="evenodd" clip-rule="evenodd" d="M12.5609 11.1346C13.0185 10.1533 13.3476 8.70271 13.462 7.80675C13.5764 6.93925 13.319 6.56954 12.4035 6.42722C12.146 6.38455 11.8885 6.39878 11.6597 6.58363C11.3163 6.83971 11.3592 7.29472 11.2162 8.04848C10.9874 9.61288 10.5009 11.2912 11.1733 11.8315C11.9028 12.4146 12.3177 11.7035 12.5609 11.1346Z" fill="#16162D"/>
<path fill-rule="evenodd" clip-rule="evenodd" d="M14.5063 12.0447C15.2501 10.8217 16.1656 8.6884 15.7078 7.97731C15.3216 7.40853 14.2344 7.10979 13.9053 8.01996C13.6479 8.73106 13.419 9.84045 13.2331 10.4519C13.0185 11.1203 12.7038 12.0164 12.9755 12.4714C13.4619 13.3105 14.1772 12.5567 14.5063 12.0447Z" fill="#16162D"/>
<path fill-rule="evenodd" clip-rule="evenodd" d="M42.415 7.59352H44.146L45.3904 4.05225H43.159L42.415 7.59352Z" fill="#16162D"/>
</svg>
