<svg width="255" height="49" viewBox="0 0 255 49" fill="none" xmlns="http://www.w3.org/2000/svg">
<path d="M67.9368 19.1528H63.3268C62.4229 19.1528 61.6427 19.6476 61.2145 20.3707L58.0841 2.40718C58.0841 2.40718 55.7101 2.83534 53.0269 2.55942C49.3494 2.18359 43.1932 -2.11223 35.1436 2.44048C27.6077 -1.99806 21.4278 2.25019 17.5267 2.5832C14.5818 2.83057 12.1079 2.44524 12.1079 2.44524L9.04888 20.3945C8.62547 19.6571 7.84049 19.1528 6.92706 19.1528H2.31708C1.19431 19.1528 0.285645 20.0614 0.285645 21.1842V23.2631C0.285645 24.3858 1.19431 25.2945 2.31708 25.2945H6.47509C4.97174 26.617 4.03453 28.5437 4.03453 30.6702V46.3216C4.03453 47.4491 4.94795 48.3625 6.07547 48.3625H16.7227C17.8502 48.3625 18.7636 47.4491 18.7636 46.3216V41.964H51.5092V46.3216C51.5092 47.4491 52.4227 48.3625 53.5502 48.3625H64.1974C65.3249 48.3625 66.2384 47.4491 66.2384 46.3216V30.6702C66.2384 28.5437 65.2964 26.617 63.793 25.2945H67.9273C69.05 25.2945 69.9587 24.3858 69.9587 23.2631V21.1842C69.9682 20.0614 69.0595 19.1528 67.9368 19.1528ZM13.1784 36.7595C11.0661 36.7595 9.35337 35.0469 9.35337 32.9347C9.35337 30.8224 11.0661 29.1146 13.1784 29.1146C15.2907 29.1146 16.9986 30.8272 16.9986 32.9347C16.9986 35.0469 15.2859 36.7595 13.1784 36.7595ZM16.0424 22.1404C15.3858 22.1404 14.7293 22.0928 14.049 21.9929L16.3754 6.76485C16.5181 6.76961 16.6608 6.77436 16.8036 6.77436C19.0205 6.77436 21.0472 6.19873 23.0025 5.64212C24.8151 5.12834 26.6753 4.71446 28.4118 4.71446C30.0341 4.71446 31.4232 5.39475 32.9171 6.35572C33.2025 6.53649 33.369 6.86 33.369 7.20253L33.2215 22.0738C30.7382 20.6609 28.7353 19.9996 26.6943 19.9996C24.915 19.9996 23.3974 20.4896 21.7894 21.0129C20.0672 21.5648 18.2926 22.1404 16.0424 22.1404ZM46.885 35.1515C46.885 35.9746 46.219 36.6406 45.3959 36.6406H24.72C23.8969 36.6406 23.2309 35.9746 23.2309 35.1515C23.2309 34.3285 23.8969 33.6625 24.72 33.6625H45.3959C46.219 33.6625 46.885 34.3285 46.885 35.1515ZM48.5025 21.0081C46.8993 20.4848 45.3816 19.9948 43.5976 19.9948C41.5566 19.9948 39.5537 20.6561 37.0704 22.069L36.9229 7.19776C36.9181 6.85524 37.0894 6.5365 37.3748 6.35097C38.8734 5.39 40.2626 4.7097 41.8944 4.7097C43.6404 4.7097 45.5148 5.12358 47.337 5.64212C49.2875 6.19873 51.3047 6.76961 53.4931 6.76961C53.6311 6.76961 53.7738 6.7696 53.9118 6.76009L56.2334 21.9881C55.5531 22.088 54.8966 22.1356 54.24 22.1356C51.9945 22.1404 50.22 21.5647 48.5025 21.0081ZM57.2277 36.7595C55.1154 36.7595 53.4075 35.0469 53.4075 32.9347C53.4075 30.8224 55.1202 29.1146 57.2277 29.1146C59.34 29.1146 61.048 30.8272 61.048 32.9347C61.048 35.0469 59.3353 36.7595 57.2277 36.7595Z" fill="#16162D"/>
<path d="M85.3961 25.3516H88.8595C89.5303 25.3516 90.0775 25.8939 90.0775 26.5694V47.216C90.0775 47.8868 89.5351 48.4339 88.8595 48.4339H85.3961C84.7253 48.4339 84.1782 47.8916 84.1782 47.216V26.5694C84.1782 25.8986 84.7253 25.3516 85.3961 25.3516Z" fill="#16162D"/>
<path d="M106.777 30.4799C104.779 30.4799 103.138 31.3029 101.753 32.6873V47.216C101.753 47.8868 101.211 48.4339 100.535 48.4339H97.0719C96.4011 48.4339 95.854 47.8916 95.854 47.216V26.5694C95.854 25.8986 96.3964 25.3516 97.0719 25.3516H99.855H100.526C101.201 25.3516 101.753 25.8986 101.753 26.5742V27.4543C103.138 26.1698 105.602 24.9424 108.371 24.9424C114.013 24.9424 117.857 27.6588 117.857 34.8899V47.2113C117.857 47.882 117.315 48.4291 116.639 48.4291H113.176C112.505 48.4291 111.958 47.8868 111.958 47.2113V35.9175C111.958 32.2258 110.06 30.4799 106.777 30.4799Z" fill="#16162D"/>
<path d="M128.856 31.0175V47.216C128.856 47.8868 128.314 48.4339 127.638 48.4339H124.18C123.504 48.4339 122.957 47.8868 122.957 47.2113V23.2631C122.957 16.7266 126.035 13.4821 131.164 13.4964C133.409 13.5012 135.274 14.2481 136.435 14.9188C137.32 15.4279 137.348 16.3793 137.049 17.0882C136.849 17.5591 136.644 18.0063 136.644 18.0063C136.05 19.1814 135.64 19.5905 134.404 19.2718C133.571 19.0577 133.052 18.972 132.244 18.9578C130.245 18.9197 128.856 20.4135 128.856 23.5961V25.4752H133.894C134.565 25.4752 135.112 26.0176 135.112 26.6931V29.7996C135.112 30.4704 134.57 31.0175 133.894 31.0175H128.856Z" fill="#16162D"/>
<path d="M164.023 41.6595C164.023 36.5835 167.768 34.1715 172.435 34.1715C174.485 34.1715 176.536 34.8376 177.668 35.6606C177.668 35.4037 177.668 35.1991 177.668 34.9422C177.668 31.5598 176.593 29.7092 173.358 29.7092C171.616 29.7092 169.97 30.0755 168.895 30.4323C167.91 30.8224 167.297 30.3515 166.94 29.6046C166.583 28.8577 166.393 28.2059 166.407 27.7017C166.431 27.0261 166.669 26.6455 168.196 25.9129C169.247 25.4086 171.612 24.7807 173.971 24.7807C180.793 24.7807 183.201 28.2678 183.201 34.3714V47.2065C183.201 47.8773 182.658 48.4244 181.983 48.4244H179.185C178.567 48.4244 178.067 47.9248 178.067 47.3064V45.7555C176.835 47.4967 174.376 48.7288 171.245 48.7288C167.049 48.7383 164.023 46.1218 164.023 41.6595ZM177.668 39.2999C176.64 38.5292 175.308 38.1724 173.614 38.1724C171.664 38.1724 169.923 39.0953 169.923 41.0458C169.923 42.7917 171.359 43.7622 173.205 43.7622C175.665 43.7622 176.949 42.6871 177.668 41.6595V39.2999Z" fill="#16162D"/>
<path d="M198.192 43.5053C200.142 43.5053 202.041 42.4302 203.373 40.6843V26.5694C203.373 25.8986 203.915 25.3516 204.591 25.3516H208.054C208.725 25.3516 209.272 25.8939 209.272 26.5694V47.216C209.272 47.8868 208.73 48.4339 208.054 48.4339H204.491C203.872 48.4339 203.373 47.9344 203.373 47.3159V45.6319C201.988 47.3254 199.576 48.9952 195.989 48.9952C191.474 48.9952 187.887 46.0743 187.887 39.4569V26.5694C187.887 25.8986 188.43 25.3516 189.105 25.3516H192.569C193.239 25.3516 193.786 25.8939 193.786 26.5694V38.2248C193.782 41.3027 194.962 43.5053 198.192 43.5053Z" fill="#16162D"/>
<path d="M228.454 45.8031C228.587 46.3026 228.411 46.883 227.769 47.2731C225.799 48.4862 224.063 48.9429 221.755 48.9429C216.522 48.9429 214.576 45.5557 214.576 39.6615V19.7998C214.576 19.129 215.119 18.5819 215.794 18.5819H219.257C219.928 18.5819 220.475 19.1243 220.475 19.7998V25.3563H226.103C226.774 25.3563 227.321 25.8986 227.321 26.5742V29.6807C227.321 30.3515 226.779 30.8986 226.103 30.8986H220.475V39.3094C220.475 41.8213 221.298 43.4625 223.244 43.4625C223.858 43.4625 224.419 43.3388 224.886 43.2056C225.518 43.0249 226.294 42.8155 226.731 42.9916C227.122 43.1485 227.359 43.4292 227.654 43.9716C228.03 44.6661 228.32 45.2846 228.454 45.8031Z" fill="#16162D"/>
<path d="M88.7794 15.8037H85.4777C84.6309 15.8037 83.9458 16.4887 83.9458 17.3355V20.3659C83.9458 21.2127 84.6309 21.8978 85.4777 21.8978H88.7794C89.6262 21.8978 90.3113 21.2127 90.3113 20.3659V17.3355C90.3113 16.4935 89.6262 15.8037 88.7794 15.8037Z" fill="#16162D"/>
<path d="M149.48 24.7902H148.705C142.125 24.7902 136.792 30.1231 136.792 36.7024V37.083C136.792 43.6623 142.125 48.9952 148.705 48.9952H149.48C156.06 48.9952 161.393 43.6623 161.393 37.083V36.7024C161.393 30.1231 156.06 24.7902 149.48 24.7902ZM149.095 43.5006C145.474 43.5006 142.534 40.5415 142.534 36.8927C142.534 33.2439 145.47 30.2801 149.095 30.2801C152.715 30.2801 155.655 33.2391 155.655 36.8927C155.655 40.5463 152.715 43.5006 149.095 43.5006Z" fill="#16162D"/>
<path d="M242.75 24.7902H241.975C235.395 24.7902 230.062 30.1231 230.062 36.7024V37.083C230.062 43.6623 235.395 48.9952 241.975 48.9952H242.75C249.33 48.9952 254.663 43.6623 254.663 37.083V36.7024C254.663 30.1231 249.33 24.7902 242.75 24.7902ZM242.36 43.5006C238.74 43.5006 235.8 40.5415 235.8 36.8927C235.8 33.2439 238.735 30.2801 242.36 30.2801C245.98 30.2801 248.921 33.2391 248.921 36.8927C248.921 40.5463 245.985 43.5006 242.36 43.5006Z" fill="#16162D"/>
</svg>
