<svg width="32" height="14" viewBox="0 0 32 14" fill="none" xmlns="http://www.w3.org/2000/svg">
<path d="M30.8148 5.43307C30.2274 5.23667 26.1414 4.34371 26.1414 4.34371C26.1414 4.34371 18.567 0.0365295 17.658 0.0365295C16.749 0.0365295 10.5135 0.0393005 10.5135 0.0393005C8.99 0.0393005 7.7168 1.20024 6.24266 2.54434C5.54791 3.17765 4.78106 3.87464 3.93521 4.49461L0.78494 4.91349C0.329725 5.05864 0 5.48457 0 5.98784V9.59724C0 10.2201 0.504888 10.7251 1.12784 10.7251H3.2926C3.44982 12.5369 4.9738 13.9634 6.82566 13.9634C8.67742 13.9634 10.2015 12.5368 10.3587 10.7252H20.6953C20.8525 12.5369 22.3765 13.9634 24.2284 13.9634C26.0802 13.9634 27.6042 12.5368 27.7614 10.7252H29.5399C30.949 10.7252 31.6376 10.1166 31.8105 9.54527C32.2477 8.09957 31.9332 5.80703 30.8148 5.43307ZM6.82566 12.2538C5.81233 12.2538 4.98786 11.4294 4.98786 10.4161C4.98786 9.40278 5.81223 8.57831 6.82566 8.57831C7.83899 8.57831 8.66336 9.40268 8.66336 10.4161C8.66341 11.4294 7.83899 12.2538 6.82566 12.2538ZM13.6475 4.34381H7.48412C7.92992 3.99161 8.3421 3.61775 8.72182 3.27166C9.71978 2.36175 10.5817 1.57587 11.613 1.57587C11.613 1.57587 12.5463 1.57545 13.6475 1.57498V4.34381H13.6475ZM15.1483 1.57441C15.911 1.57415 16.591 1.57394 16.9321 1.57394C17.7815 1.57394 21.2267 3.57467 22.5198 4.34387H15.1483V1.57441ZM24.2283 12.2538C23.215 12.2538 22.3906 11.4294 22.3906 10.4161C22.3906 9.40278 23.215 8.57831 24.2283 8.57831C25.2416 8.57831 26.0661 9.40268 26.0661 10.4161C26.0661 11.4294 25.2416 12.2538 24.2283 12.2538Z" fill="#16162D"/>
</svg>
