<svg width="22" height="26" viewBox="0 0 22 26" fill="none" xmlns="http://www.w3.org/2000/svg">
<path fill-rule="evenodd" clip-rule="evenodd" d="M8.50001 3.41797V4.60782C7.67194 4.8225 6.84685 5.19166 6.11396 5.8142C4.58695 7.11131 3.68422 9.30838 3.68422 12.7572C3.68422 15.1832 2.31328 17.5036 0.227958 20.0367C-0.0179596 20.3355 -0.069471 20.7493 0.0957001 21.0992C0.260871 21.4491 0.613079 21.6723 1.00001 21.6723H7.50115C7.54899 23.5636 9.09717 25.0821 11 25.0821C12.9029 25.0821 14.451 23.5636 14.4989 21.6723H21C21.3869 21.6723 21.7392 21.4491 21.9043 21.0992C22.0695 20.7493 22.018 20.3355 21.7721 20.0367C19.6867 17.5036 18.3158 15.1832 18.3158 12.7572C18.3158 9.30838 17.4131 7.11131 15.8861 5.8142C15.1532 5.19166 14.3281 4.8225 13.5 4.60782V3.41797C13.5 2.03726 12.3807 0.917969 11 0.917969C9.6193 0.917969 8.50001 2.03726 8.50001 3.41797ZM11 2.91797C10.7239 2.91797 10.5 3.14183 10.5 3.41797V4.33658C10.6704 4.33053 10.8374 4.32803 11 4.32803C11.1626 4.32803 11.3296 4.33053 11.5 4.33658V3.41797C11.5 3.14183 11.2762 2.91797 11 2.91797ZM12.4973 21.6723H9.50268C9.54932 22.4587 10.2019 23.0821 11 23.0821C11.7982 23.0821 12.4507 22.4587 12.4973 21.6723ZM11 6.32803C9.62426 6.32803 8.34872 6.54007 7.40876 7.3385C6.49839 8.11181 5.68422 9.62935 5.68422 12.7572C5.68422 15.2733 4.56175 17.5505 3.03802 19.6723H18.962C17.4383 17.5505 16.3158 15.2733 16.3158 12.7572C16.3158 9.62935 15.5016 8.11181 14.5913 7.3385C13.6513 6.54007 12.3758 6.32803 11 6.32803Z" fill="#333333"/>
</svg>
