<svg width="24" height="18" viewBox="0 0 24 18" fill="none" xmlns="http://www.w3.org/2000/svg">
<path d="M23.6998 3.34554V1.23411C23.6998 0.883192 23.4163 0.600098 23.0648 0.600098H17.9554C17.6039 0.600098 17.3204 0.883192 17.3204 1.23411V3.34554C17.3204 3.69647 17.6039 3.97956 17.9554 3.97956H19.5502V7.8515H14.7834C14.2961 6.44486 13.0379 5.30067 11.257 5.30067C9.4761 5.30067 8.21794 6.44781 7.73062 7.8515H5.83157C5.54214 7.1526 5.05778 6.90489 4.44937 6.64539V3.97956H6.04422C6.39568 3.97956 6.6792 3.69647 6.6792 3.34554V1.23411C6.6792 0.883192 6.39568 0.600098 6.04422 0.600098H0.93479C0.583332 0.600098 0.299805 0.883192 0.299805 1.23411V3.34554C0.299805 3.69647 0.583332 3.97956 0.93479 3.97956H2.52964V6.64539C1.53729 6.94618 0.860954 7.80431 0.860954 8.9367C0.860954 10.0691 1.51662 10.9154 2.52964 11.228V14.0206H0.93479C0.583332 14.0206 0.299805 14.3037 0.299805 14.6547V16.7661C0.299805 17.117 0.583332 17.4001 0.93479 17.4001H6.04422C6.39568 17.4001 6.6792 17.117 6.6792 16.7661V14.6547C6.6792 14.3037 6.39568 14.0206 6.04422 14.0206H4.44937V11.228C5.05778 10.9715 5.54214 10.7208 5.83157 10.0219H7.73062C8.21794 11.4285 9.46133 12.5727 11.257 12.5727C13.0527 12.5727 14.2961 11.4256 14.7834 10.0219H19.5502V14.0177H17.9554C17.6039 14.0177 17.3204 14.3008 17.3204 14.6517V16.7631C17.3204 17.1141 17.6039 17.3972 17.9554 17.3972H23.0648C23.4163 17.3972 23.6998 17.1141 23.6998 16.7631V14.6517C23.6998 14.3008 23.4163 14.0177 23.0648 14.0177H21.47V3.97661H23.0648C23.4163 3.98251 23.6998 3.69647 23.6998 3.34554ZM11.257 10.5881C10.3444 10.5881 9.60605 9.85087 9.60605 8.93965C9.60605 8.02843 10.3444 7.29119 11.257 7.29119C12.1696 7.29119 12.908 8.02843 12.908 8.93965C12.905 9.84792 12.1667 10.5881 11.257 10.5881Z" fill="#16162D"/>
</svg>
