<svg width="24" height="24" viewBox="0 0 24 24" fill="none" xmlns="http://www.w3.org/2000/svg">
<path d="M19.2966 5.52686V10.6204C19.2966 10.7909 19.1565 10.9309 18.9861 10.9309H13.1162V5.52686H10.9759V10.9309H4.79852V5.52686H2.6582V18.4753H4.79852V13.0712H10.9759V18.4753H13.1162V13.0712H19.6102C20.6179 13.0712 21.4339 12.2553 21.4339 11.2475V5.5299H19.2966V5.52686Z" fill="#16162D"/>
<path d="M5.96736 6.08143C6.26759 4.80995 5.48025 3.53583 4.20877 3.2356C2.9373 2.93537 1.66318 3.72272 1.36295 4.99419C1.06272 6.26567 1.85007 7.53977 3.12154 7.84C4.39302 8.14023 5.66713 7.3529 5.96736 6.08143Z" fill="#16162D"/>
<path d="M13.7184 7.20006C14.6422 6.27624 14.6422 4.77845 13.7183 3.85463C12.7945 2.93081 11.2967 2.9308 10.3729 3.85462C9.4491 4.77844 9.4491 6.27625 10.3729 7.20006C11.2967 8.12388 12.7945 8.12388 13.7184 7.20006Z" fill="#16162D"/>
<path d="M5.32967 20.1454C6.25349 19.2216 6.2535 17.7238 5.32968 16.7999C4.40586 15.8761 2.90805 15.8761 1.98423 16.7999C1.06042 17.7238 1.06043 19.2216 1.98424 20.1454C2.90806 21.0692 4.40586 21.0692 5.32967 20.1454Z" fill="#16162D"/>
<path d="M14.3541 19.0301C14.6543 17.7587 13.867 16.4846 12.5955 16.1843C11.324 15.8841 10.0499 16.6714 9.74967 17.9429C9.44944 19.2144 10.2368 20.4885 11.5083 20.7887C12.7797 21.089 14.0539 20.3016 14.3541 19.0301Z" fill="#16162D"/>
<path d="M21.2023 7.71048C22.4093 7.21049 22.9825 5.82664 22.4825 4.61958C21.9825 3.41252 20.5987 2.83932 19.3916 3.33932C18.1846 3.83931 17.6114 5.22315 18.1114 6.43021C18.6114 7.63728 19.9952 8.21048 21.2023 7.71048Z" fill="#16162D"/>
</svg>
